<?xml version="1.0" encoding="UTF-8"?>
<svg id="Artboard" xmlns="http://www.w3.org/2000/svg" viewBox="0 0 247.76 260.44">
  <defs>
    <style>
      .cls-1 {
        fill: #1e3a5f;
      }

      .cls-2 {
        fill: #231f20;
      }
    </style>
  </defs>
  <path class="cls-1" d="M96.43,126.71H234.4c1.86,0,3.37,1.51,3.37,3.37v79.69c0,1.86-1.51,3.37-3.37,3.37h-92.41s-31.15-36.21-45.56-86.44Z"/>
  <path class="cls-2" d="M9.99,90.88v-14.6c0-1.83,1.48-3.31,3.31-3.31H60.54s1.62,16.35,3.57,21.22H13.3c-1.83,0-3.31-1.48-3.31-3.31Z"/>
  <path class="cls-1" d="M84.94,72.97H232.13c3.12,0,5.65,2.53,5.65,5.65v12.75c0,1.56-1.26,2.82-2.82,2.82H87.28s-2.34-14.21-2.34-21.22Z"/>
  <path class="cls-2" d="M67.02,39.73c-2.75-1.09-4.66-3.62-5.1-6.55-.89-5.96-1.73-18.13,4.79-24.07,0,0,9.22-9.35,27.13,3.63,0,0,22.32,14.8,39.2,53.6,0,0-30.89-43.09-48.09-47.63,0,0-11.77-4.43-9.51,14.83,.42,3.55-2.36,6.78-5.93,6.62-.15,0-.3-.02-.45-.03,0,0-.72,.11-2.03-.4Z"/>
  <path class="cls-2" d="M9.99,131.57v72.93c0,4.78,3.88,8.66,8.66,8.66H110.32s-23-53.93-39.18-86.44H14.85c-2.68,0-4.86,2.18-4.86,4.86Z"/>
  <path class="cls-1" d="M182.87,223.66s-9.47,27.39-36.73,5.32c0,0-53.99-38.81-70.74-161.07,0,0,19.66-4.67,15.96-26.28,0,0-4.09-15.38-10.71-14.21l-.97,15.77-11.49,6.81-10.9-7.01V26.05s-12.46,1.75-12.27,23.56c0,0,2.27,13.43,14.57,18.5,.75,.31,1.18,9.86,1.31,10.75,1.37,9.52,3.16,18.99,5.29,28.37,6.56,28.92,16.33,57.34,30.46,83.46,7.27,13.45,15.66,26.34,25.5,38.06,9.73,11.58,20.37,22.92,35.93,25.68,0,0,21.03,4.15,24.79-30.76Z"/>
</svg>