<?xml version="1.0" encoding="UTF-8"?>
<svg id="Artboard" xmlns="http://www.w3.org/2000/svg" viewBox="0 0 425.2 182.86">
  <defs>
    <style>
      .cls-1 {
        fill: #1e3a5f;
      }

      .cls-2 {
        fill: #231f20;
      }
    </style>
  </defs>
  <g>
    <path class="cls-1" d="M73.3,148.54l6.19,14.77,6.18-14.77h8.16l-11.62,27.85h-5.43l-11.64-27.85h8.16Z"/>
    <path class="cls-1" d="M98.94,172.64c-2.7-2.69-4.05-5.68-4.05-8.96h-.02c0-5.01,1.36-8.87,4.07-11.57,2.84-2.84,6.88-4.26,12.11-4.26s9.27,1.43,12.11,4.28c2.7,2.69,4.05,6.14,4.05,10.33s-1.35,7.47-4.04,10.18c-2.85,2.85-6.9,4.28-12.13,4.28s-9.27-1.43-12.11-4.28Zm18.42-4.33c1.45-1.44,2.17-3.39,2.17-5.85s-.73-4.58-2.17-6.04c-1.31-1.3-3.42-1.95-6.32-1.95s-5.01,.66-6.33,1.97c-1.45,1.45-2.17,3.46-2.17,6.02s.72,4.4,2.17,5.86c1.32,1.31,3.43,1.97,6.33,1.97s4.99-.66,6.32-1.98Z"/>
    <path class="cls-1" d="M146.02,148.54h9.03l-9.97,13.92,9.97,13.93h-9.03l-5.46-7.62-5.45,7.62h-9.03l9.97-13.92-9.97-13.93h9.03l5.45,7.62,5.46-7.62Z"/>
    <path class="cls-2" d="M164.63,176.39h-7.67v-27.85h17.9c2.83,0,5.22,.98,7.17,2.94,1.82,1.87,2.73,4.19,2.73,6.98s-.91,5.09-2.73,6.96c-1.95,1.96-4.34,2.94-7.17,2.94h-9.92l3.31-6.63h6.61c.5,0,.96-.21,1.39-.63,.56-.68,.84-1.57,.84-2.64s-.28-1.98-.84-2.66c-.43-.42-.89-.63-1.39-.63h-10.23v21.22Z"/>
    <path class="cls-2" d="M200.42,167.31h-5.06l3.31-6.63h7.65c.5,0,.96-.21,1.39-.63,.56-.57,.83-1.28,.83-2.12s-.28-1.57-.83-2.14c-.43-.42-.89-.63-1.39-.63h-11.27v21.22h-7.67v-27.85h18.95c2.83,0,5.22,.98,7.17,2.94,1.82,1.81,2.73,3.96,2.73,6.45s-.91,4.63-2.73,6.44c-1.66,1.67-2.91,2.55-3.74,2.64l8.11,9.38h-9.57l-7.86-9.08Z"/>
    <path class="cls-2" d="M226.91,155.17v21.22h-7.67v-27.85h25.49l-2.75,6.63h-15.07Zm17.64,14.6l-2.75,6.63h-14.53l3.36-6.63h13.92Zm-14.53-10.61h14.72l-2.75,6.63h-14.54l2.57-6.63Z"/>
    <path class="cls-1" d="M271.83,148.54l-2.75,6.63h-13.41c-.45,0-.8,.13-1.04,.38-.24,.26-.37,.62-.37,1.1,0,.6,.59,1.12,1.77,1.55,.99,.37,2.57,.81,4.76,1.3,2.19,.5,4.11,1.12,5.77,1.86,3.6,1.61,5.36,4.15,5.31,7.6-.05,2.39-1.06,4.28-3.04,5.67-1.68,1.17-3.68,1.76-6,1.76h-17.55l2.75-6.63h14.8c.51,0,.88-.09,1.11-.26,.19-.12,.28-.32,.28-.63,.01-.73-.39-1.28-1.22-1.64-1.01-.46-2.81-.97-5.41-1.53-2.6-.56-4.72-1.24-6.37-2.04-3.06-1.45-4.6-3.79-4.61-7.03,0-2.47,.95-4.48,2.85-6.02,1.71-1.39,3.78-2.09,6.21-2.09h16.16Z"/>
    <path class="cls-1" d="M290.52,169.77h11.86l-3.36,6.63h-11.05c-4.09,0-7.56-1.43-10.4-4.28-2.7-2.7-4.05-5.92-4.05-9.66s1.36-6.95,4.07-9.66c2.84-2.84,6.3-4.26,10.39-4.26h14.25l-2.75,6.63h-11.5c-1.75,0-3.29,.66-4.61,1.97-1.45,1.45-2.17,3.22-2.17,5.32s.72,3.89,2.17,5.32c1.32,1.32,2.86,1.98,4.61,1.98h2.54Z"/>
    <path class="cls-1" d="M317.52,167.31h-5.06l3.31-6.63h7.65c.5,0,.96-.21,1.39-.63,.56-.57,.83-1.28,.83-2.12s-.28-1.57-.83-2.14c-.43-.42-.89-.63-1.39-.63h-11.27v21.22h-7.67v-27.85h18.95c2.83,0,5.22,.98,7.17,2.94,1.82,1.81,2.73,3.96,2.73,6.45s-.91,4.63-2.73,6.44c-1.66,1.67-2.91,2.55-3.74,2.64l8.11,9.38h-9.57l-7.86-9.08Z"/>
    <path class="cls-1" d="M344.01,155.17v21.22h-7.67v-27.85h25.49l-2.75,6.63h-15.07Zm17.64,14.6l-2.75,6.63h-14.53l3.36-6.63h13.92Zm-14.53-10.61h14.72l-2.75,6.63h-14.54l2.57-6.63Z"/>
    <path class="cls-1" d="M371.26,155.17v21.22h-7.67v-27.85h25.49l-2.75,6.63h-15.07Zm17.64,14.6l-2.75,6.63h-14.53l3.36-6.63h13.92Zm-14.53-10.61h14.72l-2.75,6.63h-14.54l2.57-6.63Z"/>
    <path class="cls-1" d="M398.59,161.62v14.77h-7.24v-27.85h5.57l13.81,16.56v-16.56h7.24v27.85h-6.75l-12.63-14.77Z"/>
  </g>
  <g>
    <g>
      <rect class="cls-2" x="148.4" y="45.42" width="37.3" height="95.94"/>
      <path class="cls-2" d="M282.89,45.42c.45,2.8,.66,5.71,.66,8.73,0,13.48-4.42,24.76-13.27,33.84-9.47,9.54-21.08,14.3-34.84,14.3h-48.21l16.07-32.23h32.13c2.42,0,4.69-1.01,6.77-3.04,2.71-3.32,4.07-7.6,4.07-12.86,0-3.29-.52-6.2-1.57-8.73h38.19Z"/>
      <path class="cls-1" d="M417.96,105.24c-.23,11.61-5.17,20.81-14.8,27.57-8.18,5.7-17.91,8.54-29.17,8.54h-85.35l13.36-32.22h71.98c2.48,0,4.29-.43,5.41-1.27,.89-.56,1.36-1.59,1.36-3.04,.04-3.56-1.92-6.2-5.93-7.95-4.91-2.27-13.66-4.75-26.3-7.45-12.63-2.71-22.94-6-30.95-9.9-14.88-7.04-22.35-18.41-22.41-34.11h37.21c.04,2.9,2.91,5.4,8.63,7.46,4.79,1.82,12.5,3.92,23.13,6.35,10.62,2.42,19.97,5.44,28.04,9.05,17.47,7.85,26.07,20.16,25.8,36.97Z"/>
    </g>
    <polygon class="cls-1" points="107.03 5.94 417.79 5.94 404.43 38.18 133.26 38.18 90.2 141.36 63.81 141.36 7.24 5.94 46.9 5.94 77.02 77.75 107.03 5.94"/>
  </g>
</svg>